<?xml version="1.0" encoding="utf-8"?>
<!-- Generator: Adobe Illustrator 22.0.1, SVG Export Plug-In . SVG Version: 6.00 Build 0)  -->
<svg version="1.1" xmlns="http://www.w3.org/2000/svg" xmlns:xlink="http://www.w3.org/1999/xlink" x="0px" y="0px"
	 viewBox="0 0 24.6 24.6" style="enable-background:new 0 0 24.6 24.6;" xml:space="preserve">
<path class="s_fill" d="M21.3,0h-18C1.5,0,0,1.5,0,3.3v18c0,1.8,1.5,3.3,3.3,3.3h8.9l0-8.8H9.9c-0.3,0-0.5-0.2-0.5-0.5l0-2.8
	c0-0.3,0.2-0.5,0.5-0.5h2.3V9.2c0-3.2,1.9-4.9,4.8-4.9h2.3c0.3,0,0.5,0.2,0.5,0.5v2.4c0,0.3-0.2,0.5-0.5,0.5h-1.4
	c-1.5,0-1.8,0.7-1.8,1.8v2.4h3.4c0.3,0,0.6,0.3,0.5,0.6l-0.3,2.8c0,0.3-0.3,0.5-0.5,0.5h-3l0,8.8h5.3c1.8,0,3.3-1.5,3.3-3.3v-18
	C24.6,1.5,23.1,0,21.3,0"/>
</svg>
