<?xml version="1.0" encoding="utf-8"?>
<!-- Generator: Adobe Illustrator 22.0.1, SVG Export Plug-In . SVG Version: 6.00 Build 0)  -->
<svg version="1.1" xmlns="http://www.w3.org/2000/svg" xmlns:xlink="http://www.w3.org/1999/xlink" x="0px" y="0px"
	 viewBox="0 0 23.3 23.3" style="enable-background:new 0 0 23.3 23.3;" xml:space="preserve">
<path class="s_fill" d="M2.1,16.9c0,2.4,2,4.4,4.4,4.4h10.4c2.4,0,4.4-2,4.4-4.4V6.4c0-2.4-2-4.4-4.4-4.4H6.4C4,2.1,2.1,4,2.1,6.4V16.9
	z M6.4,0h10.4c3.5,0,6.4,2.9,6.4,6.4v10.4c0,3.5-2.9,6.4-6.4,6.4H6.4c-3.5,0-6.4-2.9-6.4-6.4V6.4C0,2.9,2.9,0,6.4,0"/>
<path class="s_fill" d="M11.6,15.6c2.2,0,3.9-1.8,3.9-3.9s-1.8-3.9-3.9-3.9c-2.2,0-3.9,1.8-3.9,3.9S9.5,15.6,11.6,15.6 M11.6,5.6
	c3.3,0,6,2.7,6,6c0,3.3-2.7,6-6,6c-3.3,0-6-2.7-6-6C5.6,8.3,8.3,5.6,11.6,5.6"/>
<path class="s_fill" d="M5.4,3.9c0.4,0,0.8,0.2,1.1,0.4C6.7,4.6,6.9,5,6.9,5.4c0,0.4-0.2,0.8-0.4,1.1C6.2,6.8,5.8,6.9,5.4,6.9
	C5,6.9,4.6,6.8,4.3,6.5C4,6.2,3.9,5.8,3.9,5.4C3.9,5,4,4.6,4.3,4.3C4.6,4,5,3.9,5.4,3.9"/>
</svg>
