<?xml version="1.0" encoding="utf-8"?>
<!-- Generator: Adobe Illustrator 22.0.1, SVG Export Plug-In . SVG Version: 6.00 Build 0)  -->
<svg version="1.1" xmlns="http://www.w3.org/2000/svg" xmlns:xlink="http://www.w3.org/1999/xlink" x="0px" y="0px"
	 viewBox="0 0 25.3 25.3" style="enable-background:new 0 0 25.3 25.3;" xml:space="preserve">
<path class="s_fill" d="M18.9,10.7c0,0.1,0,0.3,0,0.4c0,4-3.1,8.6-8.7,8.5c-1.7,0-3.3-0.5-4.6-1.4c0.2,0,0.5,0,0.7,0.1
	c1.4,0,2.7-0.5,3.8-1.3c-1.3,0-2.4-0.9-2.8-2.1c0.2,0,0.4,0.1,0.6,0.1c0.3,0,0.5,0,0.8-0.1c-1.4-0.3-2.4-1.5-2.4-3c0,0,0,0,0,0
	c0.4,0.2,0.9,0.4,1.4,0.4c-0.8-0.6-1.3-1.5-1.3-2.5c0-0.6,0.2-1.1,0.4-1.5c1.5,1.8,3.7,3.1,6.2,3.2c0-0.2-0.1-0.5-0.1-0.7
	c0-1.7,1.4-3,3.1-3c0.9,0,1.6,0.4,2.2,1C18.8,8.5,19.4,8.3,20,8c-0.2,0.7-0.7,1.3-1.3,1.7c0.6-0.1,1.2-0.2,1.7-0.5
	C20,9.8,19.5,10.3,18.9,10.7 M12.8,0C5.8-0.1,0.1,5.5,0,12.5c-0.1,7,5.5,12.7,12.5,12.8c7,0.1,12.7-5.5,12.8-12.5
	C25.3,5.8,19.7,0.1,12.8,0"/>
</svg>
